<?xml version="1.0" encoding="utf-8"?>
<?xml-stylesheet type="text/xsl" href="rss1.xsl"?>
<rss version="2.0" xmlns:atom="http://www.w3.org/2005/Atom" xmlns:content="http://purl.org/rss/1.0/modules/content/" xmlns:dc="http://purl.org/dc/elements/1.1/" xmlns:media="http://search.yahoo.com/mrss/">
<channel>
 <title>Getty</title>
 <link>http://www.gettyimg.com/</link>
 <atom:link href="http://www.gettyimg.com/" rel="self" type="application/rss+xml" />

 
                <item>
                <title><![CDATA[【Requests】[REQ AUD] - Red Diary Page.1 by Bolbbalgan4 - Bol4 - Album in FLAC]]></title>
                <link><![CDATA[https://sharemania.us/threads/red-diary-page-1-by-bolbbalgan4-bol4-album-in-flac.225943/]]></link>
                <description><![CDATA[<article>
<blockquote class="messageText SelectQuoteContainer ugc baseHtml">
Hi guys, can someone help me with this please<br>
It's the Red Diary Page.1 Album by Bolbbalgan4/Bol4 in highest possible FLAC.<br>
<br>
<a href="https://music.bugs.co.kr/album/20122134" target="_blank" class="externalLink" rel="nofollow">https://music.bugs.co.kr/album/20122134</a><br>
<br>
Thankss!
<div class="messageTextEndMarker">&nbsp;</div>
</blockquote>
</article>]]></description>
                <author><![CDATA[bigcaveguard]]></author>
                </item>

                
                <item>
                <title><![CDATA[【Apple Music】WEB-RiP - Ciara x Chris Brown - How We Roll (Apple Music 1080p)]]></title>
                <link><![CDATA[https://sharemania.us/threads/ciara-x-chris-brown-how-we-roll-apple-music-1080p.225942/]]></link>
                <description><![CDATA[<article>
<blockquote class="messageText SelectQuoteContainer ugc baseHtml">
<img src="https://images2.imgbox.com/bb/be/AnDpNoz7_o.jpg" class="bbCodeImage LbImage" alt="[​IMG]" data-url="https://images2.imgbox.com/bb/be/AnDpNoz7_o.jpg" style=""><br>
<br>
<div class="ToggleTriggerAnchor bbCodeSpoilerContainer">
<button type="button" class="button bbCodeSpoilerButton ToggleTrigger Tooltip JsOnly" data-target="> .SpoilerTarget"><span>Spoiler: <span class="SpoilerTitle">Media Info</span></span></button>
<div class="SpoilerTarget bbCodeSpoilerText">Format : MPEG-4<br>
Codec ID : M4V (isom/iso4/M4V /mp42)<br>
File size : 318 MiB<br>
Duration : 4 min 20 s<br>
Overall bit rate mode : Variable<br>
Overall bit rate : 10.2 Mb/s<br>
Frame rate : 23.976 FPS<br>
Movie name : How We Roll<br>
Performer : Ciara &amp; Chris Brown<br>
Genre : R&amp;B/Soul<br>
ContentType : Music Video<br>
Recorded date : 2023-08-04 07:00:00 UTC<br>
Encoded date : 2023-08-05 03:59:06 UTC<br>
Tagged date : 2023-08-05 03:59:06 UTC<br>
Copyright : ℗ 2023 Beauty Marks Entertainment, Inc. / Chris Brown appears courtesy of Chris Brown Entertainment, LLC/RCA Records, a division of Sony Music Entertainment<br>
Cover : Yes<br>
Rating : Explicit<br>
GenreID : 1615<br>
AppleStoreCountry : United States<br>
AlbumTitleID : 14317116<br>
AppleStoreCatalogID : 1700985915<br>
<br>
Video<br>
ID : 2<br>
Format : AVC<br>
Format/Info : Advanced Video Codec<br>
Format profile : High@L4<br>
Format settings : CABAC / 4 Ref Frames<br>
Format settings, CABAC : Yes<br>
Format settings, Reference : 4 frames<br>
Codec ID : avc1<br>
Codec ID/Info : Advanced Video Coding<br>
Duration : 4 min 20 s<br>
Bit rate : 9 951 kb/s<br>
Maximum bit rate : 17.0 Mb/s<br>
Width : 1 920 pixels<br>
Height : 1 080 pixels<br>
Display aspect ratio : 16:9<br>
Frame rate mode : Constant<br>
Frame rate : 23.976 (24000/1001) FPS<br>
Color space : YUV<br>
Chroma subsampling : 4:2:0<br>
Bit depth : 8 bits<br>
Scan type : Progressive<br>
Bits/(Pixel*Frame) : 0.200<br>
Stream size : 309 MiB (97%)<br>
Title : Core Media Video<br>
Encoded date : 2023-08-03 21:20:37 UTC<br>
Tagged date : 2023-08-05 03:59:07 UTC<br>
Color range : Limited<br>
Color primaries : BT.709<br>
Transfer characteristics : BT.709<br>
Matrix coefficients : BT.709<br>
Codec configuration box : avcC<br>
<br>
Audio<br>
ID : 1<br>
Format : AAC LC<br>
Format/Info : Advanced Audio Codec Low Complexity<br>
Codec ID : mp4a-40-2<br>
Duration : 4 min 20 s<br>
Duration_LastFrame : -14 ms<br>
Bit rate mode : Variable<br>
Bit rate : 265 kb/s<br>
Maximum bit rate : 488 kb/s<br>
Channel(s) : 2 channels<br>
Channel layout : L R<br>
Sampling rate : 48.0 kHz<br>
Frame rate : 46.875 FPS (1024 SPF)<br>
Compression mode : Lossy<br>
Stream size : 8.19 MiB (3%)<br>
Title : Core Media Audio<br>
Encoded date : 2023-08-03 21:20:27 UTC<br>
Tagged date : 2023-08-05 03:59:07 UTC</div>
</div><br>
<div class="bbCodeBlock bbCodeVfcHH HiddenContent">
<div class="attribution type">Hidden Content:</div>
<blockquote>You must reply before you can see the hidden data contained here.</blockquote>
</div>
<div class="messageTextEndMarker">&nbsp;</div>
</blockquote>
</article>]]></description>
                <author><![CDATA[Eric Lyn]]></author>
                </item>

                </channel></rss>